<svg width="31" height="31" viewBox="0 0 31 31" fill="none" xmlns="http://www.w3.org/2000/svg">
<circle cx="15.5001" cy="15.4996" r="15.1852" fill="white"/>
<path d="M10.5116 20.277C11.276 21.2401 12.6987 21.2401 15.5439 21.2401H16.0035C18.8487 21.2401 20.2714 21.2401 21.0357 20.277M10.5116 20.277C9.74727 19.314 10.0094 17.8519 10.5338 14.9278C10.9067 12.8483 11.0931 11.8086 11.801 11.1943M10.5116 20.277C10.5116 20.277 10.5116 20.277 10.5116 20.277ZM21.0357 20.277C21.8001 19.314 21.5379 17.8519 21.0136 14.9278C20.6407 12.8483 20.4542 11.8086 19.7464 11.1943M21.0357 20.277C21.0357 20.277 21.0357 20.277 21.0357 20.277ZM19.7464 11.1943C19.0386 10.5801 18.0269 10.5801 16.0035 10.5801H15.5439C13.5205 10.5801 12.5088 10.5801 11.801 11.1943M19.7464 11.1943C19.7464 11.1943 19.7464 11.1943 19.7464 11.1943ZM11.801 11.1943C11.801 11.1943 11.801 11.1943 11.801 11.1943Z" stroke="black" stroke-width="1.5"/>
<path d="M14.1336 13.0396C14.3723 13.9951 15.0164 14.6796 15.7736 14.6796C16.5307 14.6796 17.1749 13.9951 17.4136 13.0396" stroke="black" stroke-width="1.5" stroke-linecap="round"/>
</svg>
